<?xml version="1.0" encoding="UTF-8" standalone="no"?>
<!-- Created with Inkscape (http://www.inkscape.org/) -->

<svg
   version="1.1"
   id="svg9"
   width="300"
   height="268.79999"
   viewBox="0 0 300 268.79999"
   sodipodi:docname="alcee_log_let.svg"
   inkscape:version="1.1.2 (b8e25be833, 2022-02-05)"
   xmlns:inkscape="http://www.inkscape.org/namespaces/inkscape"
   xmlns:sodipodi="http://sodipodi.sourceforge.net/DTD/sodipodi-0.dtd"
   xmlns="http://www.w3.org/2000/svg"
   xmlns:svg="http://www.w3.org/2000/svg">
  <defs
     id="defs13" />
  <sodipodi:namedview
     id="namedview11"
     pagecolor="#ffffff"
     bordercolor="#666666"
     borderopacity="1.0"
     inkscape:pageshadow="2"
     inkscape:pageopacity="0.0"
     inkscape:pagecheckerboard="0"
     showgrid="false"
     inkscape:zoom="2.0492418"
     inkscape:cx="254.24037"
     inkscape:cy="174.94275"
     inkscape:window-width="1920"
     inkscape:window-height="1001"
     inkscape:window-x="-9"
     inkscape:window-y="-9"
     inkscape:window-maximized="1"
     inkscape:current-layer="g15" />
  <g
     inkscape:groupmode="layer"
     inkscape:label="Image"
     id="g15">
    <g
       id="g5290">
      <path
         style="fill:#878686;stroke-width:0.8"
         d="m 149.2,259.2803 c -11.77938,-2.9569 -19.24963,-8.48337 -23.35819,-17.28031 l -2.24181,-4.8 v -9.2 -9.2 l 2.13614,-4.5572 c 8.79739,-18.7681 34.98147,-24.22313 50.89368,-10.60287 4.2389,3.62834 4.21594,3.98718 -0.55588,8.68725 l -3.92608,3.86703 -2.71699,-2.07235 c -12.91909,-9.85387 -30.59273,-3.61255 -32.37463,11.43285 -2.12017,17.90148 17.66928,28.22435 32.02893,16.70742 l 3.08516,-2.47441 4.51484,4.55902 4.51483,4.55903 -3.15027,2.7618 c -5.24002,4.59385 -11.05467,6.96966 -21.24973,8.68247 -1.1,0.1848 -4.52,-0.29658 -7.6,-1.06973 z M 13.954406,254.19999 c 3.128158,-8.30762 12.413772,-31.13135 14.402148,-35.4 1.02478,-2.2 3.433784,-8.05049 5.353341,-13.00111 l 3.490105,-9.0011 6.286083,0.2011 6.286083,0.20111 1.9281,5.13512 c 1.060454,2.82431 2.241428,5.52431 2.624385,6 0.382958,0.47568 4.347807,9.99124 8.810777,21.14567 4.46297,11.15444 8.777067,21.59444 9.586882,23.2 0.809816,1.60557 1.722844,3.72921 2.028952,4.71921 l 0.556558,1.8 h -7.569231 -7.569232 l -1.999591,-5 -1.999591,-5 -12.705663,-0.21896 -12.705663,-0.21895 -1.951759,5.21895 -1.95176,5.21896 H 19.463516 12.071702 Z M 52,237.28027 c 0,-0.67976 -5.583825,-14.6398 -7.028155,-17.57098 l -1.522932,-3.09071 -3.445672,8.69071 c -1.895119,4.77989 -3.751125,9.0327 -4.124456,9.4507 -2.064303,2.3113 -0.626888,2.84 7.721215,2.84 4.62,0 8.4,-0.14387 8.4,-0.31972 z m 30.266664,21.12276 c -0.146664,-0.43834 -0.168256,-14.47834 -0.048,-31.2 l 0.218688,-30.40304 H 89.21868 96 v 24.8 24.8 h 12 12 v 6.4 6.4 h -18.73334 c -11.729508,0 -18.833028,-0.29796 -18.999996,-0.79696 z m 105.923946,-30.20304 0.20939,-31 21,-0.21328 21,-0.21329 v 6.81329 6.81328 h -14 -14 v 5.6 5.6 h 13.2 13.2 v 6 6 h -13.2 -13.2 v 6.4 6.4 h 14.4 14.4 v 6.4 6.4 h -21.60939 -21.6094 z m 52.8,0 0.20939,-31 21.03257,-0.21334 21.03257,-0.21335 -0.23257,6.61335 -0.23257,6.61334 -13.8,0.21889 -13.8,0.2189 v 5.5811 5.58111 h 13.2 13.2 v 6 6 h -13.2 -13.2 v 6.4 6.4 h 14.4 14.4 v 6.4 6.4 h -21.60939 -21.6094 z M 136.8,174.43619 C 128.6044,169.44907 101.08219,153.56733 95.2,150.43083 87.307576,146.22243 74.62461,138.43459 73.544812,137.13368 72.583224,135.97519 72.4,128.91362 72.4,93.011757 V 50.269056 l 2.41346,-2.156578 c 1.327402,-1.186118 6.367404,-4.348521 11.199996,-7.027563 22.234984,-12.326381 46.983984,-26.346506 53.056004,-30.055829 8.11348,-4.9564212 8.67368,-4.916859 19.33054,1.365147 2.42,1.426542 8.9,5.030958 14.4,8.009814 5.5,2.978856 12.52,6.925106 15.6,8.769445 3.08,1.844339 7.58,4.386956 10,5.650259 13.41088,7.000833 21.87283,12.069521 23.6241,14.150778 L 224,51.322759 v 39.500974 c 0,45.365837 0.5569,42.043987 -7.90457,47.149447 -3.35249,2.02281 -12.93543,8.04071 -21.29543,13.37309 -8.36,5.3324 -20.24,12.74987 -26.4,16.48328 -6.16,3.73341 -12.70486,7.81907 -14.54414,9.07924 -5.09027,3.48755 -7.94018,3.0744 -17.05586,-2.4726 z m 1.7533,-76.651762 c -0.36676,-0.122248 -4.78128,-2.6668 -9.81006,-5.654551 C 123.71446,89.142125 114.74,83.929773 108.8,80.546869 102.86,77.16396 95.93,73.146465 93.4,71.6191 l -4.6,-2.77703 0.0056,29.378966 0.0056,29.378964 10.99448,6.5167 c 6.04697,3.58419 12.43449,7.24181 14.19449,8.12806 1.76,0.88625 8.06,4.5361 14,8.11078 l 10.8,6.49941 0.21005,-29.42412 c 0.11554,-16.18327 -0.09,-29.524154 -0.45676,-29.646402 z m 32.28074,50.195002 c 5.09584,-3.07756 13.29285,-7.78964 18.21556,-10.47128 4.92272,-2.68165 10.83019,-6.00802 13.12771,-7.39194 l 4.17731,-2.51621 0.0227,-29.068396 0.0227,-29.068398 -3.4,1.947267 c -1.87,1.070997 -5.47,3.157633 -8,4.636968 l -4.6,2.689702 v 11.385974 11.385973 l -8.2,4.85715 -8.2,4.85716 -0.4,-11.0117 c -0.24844,-6.839311 -0.70312,-10.901239 -1.2,-10.720167 -0.44,0.160344 -4.13,2.251344 -8.2,4.646663 l -7.4,4.355136 v 28.773868 28.77388 l 2.38444,-1.23304 c 1.31144,-0.67817 6.55376,-3.75105 11.6496,-6.82861 z M 156.50502,79.100539 c 4.56224,-2.694702 8.29498,-5.000494 8.29498,-5.123983 0,-0.304308 -5.47498,-3.456641 -13.11647,-7.552082 -3.47406,-1.861913 -10.67406,-5.995901 -16,-9.186639 -5.32594,-3.190738 -12.31496,-7.32295 -15.53115,-9.182692 l -5.84763,-3.38135 -8.27767,4.605465 -8.277672,4.605466 13.725292,8.357066 c 7.54892,4.596387 16.89889,10.148555 20.77773,12.338153 3.87883,2.189597 8.91063,5.204854 11.18175,6.700574 5.03011,3.312712 3.27628,3.605216 13.07084,-2.179978 z m 34.09401,-19.900541 c 4.28947,-2.42 7.69716,-4.706926 7.57265,-5.082058 -0.12451,-0.375132 -3.27408,-2.305243 -6.99903,-4.289135 C 187.44769,47.844914 178.46,42.700781 171.2,38.397398 163.94,34.094016 155.66,29.311406 152.8,27.769378 l -5.2,-2.803686 -7.84539,4.443193 c -6.23763,3.532647 -7.63115,4.637383 -6.8,5.390787 1.3,1.178387 27.32485,16.918302 33.84539,20.469801 2.64,1.437911 6.96,3.969994 9.6,5.62685 5.72582,3.593511 4.58016,3.73038 14.19903,-1.696325 z M 58.4,117.55354 C 47.300622,113.20091 15.367754,96.21606 10.063091,91.843509 7.2243772,89.503605 6.0632482,86.124037 7.3024798,83.808509 8.3162664,81.914237 9.726508,82.031757 14.4,84.399997 c 4.493678,2.27712 6.588174,2.501144 7.957559,0.851136 1.531351,-1.84516 -0.343584,-4.27704 -4.796616,-6.221432 C 15.382424,78.078463 13.6,77.007636 13.6,76.650087 c 0,-0.35755 -0.498013,-0.65009 -1.106695,-0.65009 -1.247237,0 -2.208082,-2.770037 -1.552996,-4.477161 0.670361,-1.746933 2.281673,-1.364499 8.084229,1.918736 7.376588,4.173862 7.808588,4.2898 9.406244,2.524411 l 1.381112,-1.526111 -2.590551,-2.419937 c -1.424803,-1.330966 -2.907071,-2.419938 -3.293929,-2.419938 -1.373049,0 -8.765405,-4.976173 -9.538616,-6.420931 -1.407444,-2.629833 1.076645,-4.211445 3.989165,-2.539888 1.679419,0.963854 2.598989,1.103868 3.21356,0.489297 1.494663,-1.494663 0.17061,-2.995424 -7.006985,-7.942143 -6.0787204,-4.189388 -7.0170493,-5.149086 -7.2352248,-7.4 C 7.0119294,42.305546 8.2915448,42.438884 13.655515,46.443448 16.044982,48.227345 21.6,51.899638 26,54.604099 c 4.4,2.70446 9.26,5.779988 10.8,6.834505 1.54,1.054517 8.38,4.61953 15.2,7.922249 6.82,3.302719 12.94,6.276676 13.6,6.608793 1.014242,0.510373 1.23295,3.965029 1.412858,22.317102 L 67.225715,120 65.812858,119.95322 C 65.035786,119.92749 61.7,118.84764 58.4,117.55354 Z m 198.52806,-4.94548 C 256.41763,112.09763 256,109.56833 256,106.9874 c 0,-2.58092 -0.35988,-5.36503 -0.79974,-6.18691 l -0.79972,-1.49431 -12.44474,4.34691 C 235.1112,106.04388 229.17108,108 228.75554,108 c -0.44516,0 -0.7523,-5.6692 -0.74766,-13.800004 l 0.008,-13.799999 7.20557,-3.85464 c 4.73913,-2.535213 7.00912,-4.178232 6.63166,-4.8 -0.31565,-0.519948 -2.10114,-3.027048 -3.96777,-5.571333 -3.70164,-5.04546 -4.81691,-7.58515 -3.76469,-8.572969 0.54382,-0.510533 11.20024,0.939644 20.67947,2.814162 0.88,0.17402 8.62,1.415814 17.2,2.759543 19.30531,3.023439 20,3.167515 20,4.147931 0,1.552513 -31.36686,44.497149 -33.43391,45.774659 -0.39048,0.24133 -1.12759,0.0211 -1.63803,-0.48929 z M 6.5365362,69.881835 C 6.6915468,69.076929 7.4769323,68.291545 8.2818376,68.136533 9.3387048,67.933 9.6669976,68.261293 9.463464,69.31816 9.3084528,70.123065 8.523068,70.90845 7.7181626,71.063461 6.6612953,71.266995 6.3330022,70.938702 6.5365362,69.881835 Z m 1.993171,-10.248513 c -1.6823224,-1.272945 -1.4997722,-3.901627 0.2949536,-4.24726 2.1600252,-0.415982 4.4969172,1.92176 3.5181852,3.519465 -1.151825,1.880268 -2.060757,2.053752 -3.8131388,0.727795 z"
         id="path5300" />
      <path
         style="fill:#8e5d6d;stroke-width:0.8"
         d="m 149.42438,259.22041 c -9.50076,-1.71316 -19.49351,-9.13105 -23.61624,-17.53099 l -2.20344,-4.48943 -0.002,-8.8 c -0.003,-10.63505 1.85455,-15.53309 8.35559,-22.03413 12.35604,-12.35604 36.01849,-12.72579 46.87233,-0.73242 l 1.46171,1.61516 -3.91592,3.9757 c -4.40352,4.47075 -5.09555,4.68667 -7.25207,2.26271 -5.43549,-6.10957 -19.11789,-6.22521 -25.85933,-0.21855 -17.81702,15.87503 2.82187,43.31273 23.47558,31.20885 1.86303,-1.09181 3.86779,-2.56404 4.45503,-3.27162 1.24098,-1.49529 8.80473,5.11608 8.80473,7.69609 0,5.70909 -19.54992,12.30678 -30.57562,10.31863 z m -135.89261,-3.7904 c 0.842651,-2.10651 2.973114,-7.43002 4.734364,-11.83002 1.761249,-4.4 3.745629,-9.0391 4.409732,-10.30911 0.664104,-1.27002 4.198837,-9.8332 7.854963,-19.0293 l 6.647501,-16.72018 6.263048,0.2293 6.263048,0.22929 5.20869,12.4 C 63.393793,230.58941 74.4,257.78506 74.4,258.55087 c 0,0.39128 -3.083166,0.6074 -6.851482,0.48026 l -6.851481,-0.23114 -2.269817,-5.13334 -2.269818,-5.13332 -2.878701,0.0666 c -1.583286,0.0366 -7.321939,0.0967 -12.752562,0.13333 l -9.873861,0.0667 -1.957462,5 -1.957463,5 -7.368837,0.23002 -7.368837,0.23003 z M 52,237.32311 c 0,-0.33059 -4.250325,-11.98923 -5.513351,-15.12312 -0.487657,-1.21 -1.275494,-3.19 -1.750749,-4.4 l -0.8641,-2.2 -1.249546,2.36814 c -0.687249,1.30247 -2.781416,6.25247 -4.653703,11 l -3.404158,8.63186 h 8.717804 C 48.076989,237.59999 52,237.4754 52,237.32311 Z m 30.4,-8.92312 v -30.8 h 6.4 6.4 v 24.37916 24.37917 l 12.2,0.22083 12.2,0.22084 0.23365,6.2 0.23365,6.2 H 101.23365 82.4 Z m 106.4,0 v -30.8 h 20.8 20.8 v 5.98155 5.98153 l -14.2,0.21847 -14.2,0.21845 -0.23505,5.8 -0.23505,5.8 H 215.2 228.8701 l -0.23505,5.8 -0.23505,5.8 -13.4,0.21935 -13.4,0.21934 v 6.36261 6.3626 l 14.6,0.21805 14.6,0.21805 0.23365,6.2 0.23365,6.2 H 210.03365 188.8 Z m 52.8,0 v -30.8 h 20.8 20.8 v 6 6 h -14.4 -14.4 v 6 6 h 13.63505 13.63505 l -0.23505,5.8 -0.23505,5.8 -13.4,0.21935 -13.4,0.21934 v 6.36261 6.3626 l 14.6,0.21805 14.6,0.21805 0.23365,6.2 0.23365,6.2 H 262.83365 241.6 Z m -95.49546,-49.84614 c -0.82251,-0.16937 -3.16251,-1.2883 -5.2,-2.48654 -2.0375,-1.19822 -7.30454,-4.09812 -11.70454,-6.44424 -4.4,-2.3461 -8.9,-4.88168 -10,-5.63463 C 117.10366,162.55352 95.677984,150.13691 82,142.43031 71.097078,136.28725 71.895778,140.45599 72.172431,91.136141 L 72.4,50.566649 73.819474,48.998813 c 0.780711,-0.86231 2.760711,-2.249807 4.4,-3.083326 C 79.858763,45.081969 83.72,42.916474 86.8,41.103277 c 3.08,-1.813197 11,-6.344799 17.6,-10.070226 6.6,-3.725427 14.52,-8.21363 17.6,-9.973785 15.95434,-9.117567 23.71568,-13.0592663 25.71413,-13.0592663 1.22678,0 6.33645,2.2829763 11.45061,5.1160723 5.0794,2.813839 11.21526,6.186413 13.63526,7.494607 4.80999,2.600167 27.63182,15.531213 40.53134,22.965409 4.92652,2.839225 8.47372,5.437632 9,6.592709 C 222.9191,51.458772 223.2,64.96947 223.2,91.949013 v 39.873727 l -1.4,1.62858 c -1.27173,1.47935 -33.9277,22.54867 -34.94886,22.54867 -0.23913,0 -3.04846,1.68247 -6.24296,3.73881 -27.40204,17.63907 -30.91407,19.5542 -34.50364,18.81505 z M 140,128.07652 V 98.553028 l -9.8,-5.785215 C 111.31954,81.622141 97.960032,73.836893 93.4,71.322624 l -4.6,-2.536306 0.01368,29.806838 0.01368,29.806844 5.786288,3.0622 c 3.182456,1.68422 12.626292,7.12331 20.986292,12.08687 12.16112,7.22039 22.6547,13.27456 24.2,13.96196 0.11,0.049 0.2,-13.1966 0.2,-29.43451 z m 23.6,24.40955 c 13.55911,-7.53965 41.99077,-24.15684 42.91755,-25.08363 0.3865,-0.38649 0.60816,-13.72571 0.49259,-29.642692 L 206.8,68.819781 l -8.2,4.579967 -8.2,4.579969 v 11.745184 11.745179 l -8.2,4.40807 -8.2,4.40805 -0.22258,-10.7431 c -0.12241,-5.908703 -0.37596,-10.743103 -0.56342,-10.743103 -0.67589,0 -14.43821,8.105623 -15.43586,9.091295 -1.2773,1.261936 -1.22614,-0.218336 -1.09127,31.575368 0.0622,14.66667 0.38313,26.54667 0.71313,26.4 0.33,-0.14667 3.12,-1.66793 6.2,-3.38059 z m -9.32998,-71.435553 c 2.93148,-1.622212 6.73188,-3.819488 8.4453,-4.882833 l 3.11532,-1.933356 -6.31532,-3.620486 c -3.47342,-1.991268 -11.08638,-6.453992 -16.91766,-9.917165 -5.8313,-3.463174 -10.76373,-6.296679 -10.96096,-6.296679 -0.19724,0 -4.19404,-2.205014 -8.88179,-4.900033 l -8.52316,-4.900032 -3.31587,1.856986 c -1.82374,1.021342 -5.60366,3.181182 -8.39985,4.799644 l -5.083958,2.942657 7.275418,4.500389 c 4.00148,2.475214 7.42993,4.500389 7.61877,4.500389 0.44192,0 13.48233,7.776834 25.27374,15.072356 10.79126,6.676715 9.89491,6.527331 16.67002,2.778163 z m 36.27904,-21.495761 c 8.66484,-4.906075 8.9784,-5.330638 5.33024,-7.217176 -1.38639,-0.716928 -6.87639,-3.912438 -12.2,-7.101133 -5.32362,-3.188695 -12.1993,-7.153488 -15.2793,-8.810652 -3.08,-1.657163 -8.8713,-4.950899 -12.86955,-7.31941 -8.64611,-5.12184 -7.42292,-5.002981 -13.444,-1.306386 -2.68755,1.65 -6.22611,3.681117 -7.86346,4.513594 -3.61125,1.836063 -3.48445,2.086799 2.79806,5.532471 4.87285,2.672537 25.50019,15.06888 37.34217,22.441391 7.38116,4.595326 6.72316,4.625112 16.18584,-0.732699 z"
         id="path5298" />
      <path
         style="fill:#696064;stroke-width:0.8"
         d="m 149.42438,259.22041 c -9.50076,-1.71316 -19.49351,-9.13105 -23.61624,-17.53099 l -2.20344,-4.48943 -0.002,-8.8 c -0.003,-10.63505 1.85455,-15.53309 8.35559,-22.03413 12.35604,-12.35604 36.01849,-12.72579 46.87233,-0.73242 l 1.46171,1.61516 -3.91592,3.9757 c -4.40352,4.47075 -5.09555,4.68667 -7.25207,2.26271 -5.43549,-6.10957 -19.11789,-6.22521 -25.85933,-0.21855 -17.81702,15.87503 2.82187,43.31273 23.47558,31.20885 1.86303,-1.09181 3.86779,-2.56404 4.45503,-3.27162 1.24098,-1.49529 8.80473,5.11608 8.80473,7.69609 0,5.70909 -19.54992,12.30678 -30.57562,10.31863 z m -135.89261,-3.7904 c 0.842651,-2.10651 2.973114,-7.43002 4.734364,-11.83002 1.761249,-4.4 3.745629,-9.0391 4.409732,-10.30911 0.664104,-1.27002 4.198837,-9.8332 7.854963,-19.0293 l 6.647501,-16.72018 6.263048,0.2293 6.263048,0.22929 5.20869,12.4 C 63.393793,230.58941 74.4,257.78506 74.4,258.55087 c 0,0.39128 -3.083166,0.6074 -6.851482,0.48026 l -6.851481,-0.23114 -2.269817,-5.13334 -2.269818,-5.13332 -2.878701,0.0666 c -1.583286,0.0366 -7.321939,0.0967 -12.752562,0.13333 l -9.873861,0.0667 -1.957462,5 -1.957463,5 -7.368837,0.23002 -7.368837,0.23003 z M 52,237.32311 c 0,-0.33059 -4.250325,-11.98923 -5.513351,-15.12312 -0.487657,-1.21 -1.275494,-3.19 -1.750749,-4.4 l -0.8641,-2.2 -1.249546,2.36814 c -0.687249,1.30247 -2.781416,6.25247 -4.653703,11 l -3.404158,8.63186 h 8.717804 C 48.076989,237.59999 52,237.4754 52,237.32311 Z m 30.4,-8.92312 v -30.8 h 6.4 6.4 v 24.37916 24.37917 l 12.2,0.22083 12.2,0.22084 0.23365,6.2 0.23365,6.2 H 101.23365 82.4 Z m 106.4,0 v -30.8 h 20.8 20.8 v 5.98155 5.98153 l -14.2,0.21847 -14.2,0.21845 -0.23505,5.8 -0.23505,5.8 H 215.2 228.8701 l -0.23505,5.8 -0.23505,5.8 -13.4,0.21935 -13.4,0.21934 v 6.36261 6.3626 l 14.6,0.21805 14.6,0.21805 0.23365,6.2 0.23365,6.2 H 210.03365 188.8 Z m 52.8,0 v -30.8 h 20.8 20.8 v 6 6 h -14.4 -14.4 v 6 6 h 13.63505 13.63505 l -0.23505,5.8 -0.23505,5.8 -13.4,0.21935 -13.4,0.21934 v 6.36261 6.3626 l 14.6,0.21805 14.6,0.21805 0.23365,6.2 0.23365,6.2 H 262.83365 241.6 Z m -104.38782,-54.494 c -4.3874,-2.4717 -11.40499,-6.5533 -15.59464,-9.07023 C 117.4279,162.31883 111.84,159.16763 109.2,157.8331 105.14502,155.78327 91.160376,147.70674 77.789391,139.69256 72.753495,136.67419 72.834599,137.41937 72.73504,93.253469 72.635964,49.301831 72.586718,49.812225 77.204162,46.934411 83.991104,42.704464 100.06524,33.51703 109.86914,28.264223 c 6.08802,-3.26189 11.8259,-6.635751 12.75084,-7.497467 0.92495,-0.861716 2.01023,-1.566757 2.41173,-1.566757 0.40151,0 4.8674,-2.341616 9.9242,-5.203593 13.39083,-7.5787517 11.98287,-7.6230778 27.04409,0.851417 8.92978,5.024513 22.77367,12.762635 36.2,20.234186 17.63627,9.81432 21.94615,12.451428 23.42754,14.334704 L 223.2,51.415772 v 39.454473 c 0,28.707075 -0.25826,40.021275 -0.94807,41.535245 -0.77047,1.69099 -13.7815,10.7945 -15.42785,10.7945 -0.545,0 -9.5319,5.73832 -10.02408,6.4006 -0.22,0.29602 -5.44,3.60221 -11.6,7.34708 -6.16,3.74488 -16.39155,10.10364 -22.73679,14.1306 -14.21447,9.02109 -14.25034,9.02511 -25.25103,2.82772 z M 139.98775,128.2 c -0.006,-16.17 -0.27673,-29.798708 -0.6,-30.286012 C 139.06449,97.426676 134.3,94.584516 128.8,91.598077 123.3,88.611629 116.96593,85.000581 114.72429,83.573533 110.00906,80.571757 89.612752,68.799997 89.126976,68.799997 88.947136,68.799997 88.8,82.216901 88.8,98.61534 v 29.81534 l 4.985408,2.78466 c 2.741976,1.53156 5.351976,2.92814 5.8,3.1035 0.448022,0.17536 6.394592,3.63742 13.214592,7.69345 24.10054,14.33322 26.00588,15.44462 26.6,15.51581 0.33,0.0395 0.59449,-13.15811 0.58775,-29.3281 z M 168.4,149.96292 c 3.08,-1.68331 10.85882,-6.20258 17.28625,-10.04281 6.42744,-3.84024 13.89744,-8.09844 16.6,-9.46269 L 207.2,127.97696 V 98.388476 c 0,-16.273663 -0.15317,-29.588479 -0.34038,-29.588479 -0.18721,0 -4.05721,2.109474 -8.6,4.68772 L 190,78.175437 l -0.4,11.826232 -0.4,11.826231 -7.6,4.25856 -7.6,4.25856 -0.22258,-10.772512 c -0.12241,-5.924879 -0.54402,-10.772511 -0.9369,-10.772511 -0.76241,0 -14.16255,7.589911 -15.84052,8.972151 -0.76662,0.631504 -1,7.623582 -1,29.959532 v 29.13576 l 3.4,-1.92197 c 1.87,-1.05708 5.92,-3.29923 9,-4.98255 z M 157.30927,79.399997 c 8.49317,-4.727628 9.30123,-5.474686 6.89073,-6.370491 -0.77,-0.286151 -7.88,-4.35467 -15.8,-9.041153 -7.92,-4.686483 -17.61678,-10.242124 -21.54839,-12.345869 -3.93162,-2.103744 -7.64969,-4.326283 -8.26239,-4.938976 -3.0354,-3.035406 -4.96332,-2.958647 -9.12609,0.363349 -0.73528,0.586772 -3.91411,2.42302 -7.06407,4.080552 l -5.727204,3.013693 11.064074,6.454004 c 9.53303,5.560902 20.15619,11.942531 24.26407,14.576106 5.2574,3.370534 15.01146,8.745193 15.9227,8.773681 0.61748,0.01928 4.84144,-2.034896 9.38657,-4.564896 z m 35.04264,-20.363615 c 7.96561,-4.449183 7.95612,-4.371626 1.0184,-8.322189 C 176.11544,40.888701 159.47734,31.171781 158.6,30.407754 c -0.55,-0.478961 -1.00551,-0.586644 -1.01225,-0.239297 -0.006,0.347348 -0.27673,0.22273 -0.6,-0.276929 -0.32326,-0.499659 -2.50033,-2.033635 -4.83794,-3.408836 l -4.25019,-2.500365 -8.34981,4.922058 c -4.59239,2.707131 -8.34981,5.038601 -8.34981,5.181044 0,0.532429 11.17313,7.490533 22,13.70058 6.16,3.533235 14.98,8.763517 19.6,11.62285 l 8.4,5.198786 2.4,-1.011706 c 1.32,-0.556437 5.25836,-2.608239 8.75191,-4.559557 z"
         id="path5296" />
      <path
         style="fill:#6a112d;stroke-width:0.8"
         d="m 149.6,259.09941 c -15.80253,-2.56268 -25.92334,-14.52522 -25.97298,-30.69942 l -0.027,-8.8 2.2658,-4.61423 c 8.72359,-17.7653 32.19485,-23.75415 48.98021,-12.49762 5.92639,3.97432 5.97098,4.27581 1.32021,8.92658 l -4.11361,4.11361 -1.8263,-1.71451 c -7.66525,-7.19604 -23.51867,-6.43325 -29.31789,1.41062 -14.14095,19.12666 8.89642,42.52807 27.72093,28.15899 l 3.59269,-2.74236 4.05861,4.05862 4.05862,4.05862 -2.36202,2.46542 c -3.20392,3.34417 -10.94801,7.02848 -16.77725,7.98191 -5.39248,0.88199 -5.513,0.88089 -11.6,-0.10623 z M 12.8,257.69953 c 0,-0.69672 2.438536,-6.46485 5.960732,-14.09954 1.01495,-2.2 4.980378,-11.92 8.812061,-21.6 3.831683,-9.68 7.726049,-19.14387 8.654149,-21.03082 l 1.687452,-3.43082 5.916805,0.23082 5.916805,0.23082 5.907082,14.8 c 3.248894,8.14 6.829809,16.69637 7.957588,19.01416 1.127779,2.31779 3.258081,7.35779 4.734007,11.2 1.475925,3.84221 3.441982,8.88986 4.369016,11.21699 l 1.685516,4.23116 -6.953492,-0.23116 -6.953492,-0.23115 -1.647115,-4.00306 c -0.905912,-2.20168 -1.93836,-4.45168 -2.294328,-5 -0.471688,-0.72657 -4.076301,-0.99694 -13.291313,-0.99694 h -12.6441 l -1.308687,3.42674 C 28.588909,253.31145 28,255.13716 28,255.48388 c 0,2.04643 -2.6074,2.91611 -8.742857,2.91611 -3.551429,0 -6.457143,-0.31521 -6.457143,-0.70046 z m 39.160186,-21.09954 c -0.06785,-1.70421 -7.720666,-20.12016 -8.463968,-20.36793 -0.647579,-0.21585 -2.091685,3.08028 -7.171129,16.36793 l -1.91134,5 h 8.793125 c 6.522401,0 8.782844,-0.25824 8.753312,-1 z m 30.439814,-8.6 v -30.4 h 6.38844 6.38844 l 0.21156,24.6 0.21156,24.6 12.2,0.22084 12.2,0.22083 v 5.57917 5.57916 H 101.2 82.4 Z m 106.4,0 v -30.4 h 20.8 20.8 v 6 6 H 216 201.6 v 6 6 h 13.6 13.6 v 5.58066 5.58065 l -13.4,0.21935 -13.4,0.21934 v 6.8 6.8 l 14.6,0.21805 14.6,0.21805 v 5.58195 5.58195 H 210 188.8 Z m 52.8,0 v -30.4 h 20.8 20.8 v 6 6 h -14.4 -14.4 v 6 6 h 13.2 13.2 v 5.6 5.6 h -13.2 -13.2 v 7.2 7.2 h 14.8 14.8 v 5.6 5.6 H 262.8 241.6 Z M 135.95657,173.10093 C 130.92046,170.18645 122.66,165.45691 117.6,162.59086 86.980536,145.24754 75.42859,138.43933 74.286255,137.06364 72.725084,135.18355 72.283469,53.396404 73.818309,50.399998 c 0.56345,-1.1 3.714833,-3.570772 7.003075,-5.490604 C 84.109624,42.989562 89.68,39.706903 93.2,37.614597 c 3.52,-2.092306 9.64,-5.519751 13.6,-7.616545 3.96,-2.096793 10.62,-5.810527 14.8,-8.252742 16.06338,-9.385224 22.87414,-13.0759695 24.87042,-13.4772711 2.23008,-0.4483012 10.74467,3.4725561 21.09452,9.7137421 3.09928,1.868937 10.13506,5.83737 15.63506,8.818738 5.5,2.981369 13.24,7.302745 17.2,9.603059 3.96,2.300314 9.98906,5.70257 13.39791,7.560569 3.40886,1.857999 6.91886,4.294706 7.8,5.414903 L 223.2,51.415772 v 39.531841 c 0,45.947217 0.71718,42.104677 -8.92101,47.797007 -7.60588,4.49205 -33.46437,20.60957 -45.96794,28.6517 -4.6145,2.96799 -10.08223,6.33115 -12.15052,7.47371 -2.06829,1.14256 -4.10253,2.4042 -4.52053,2.80367 -2.07934,1.98713 -6.65194,0.65391 -15.68343,-4.57277 z M 140,127.69012 V 97.780244 l -7.1937,-4.090119 c -3.95653,-2.249568 -7.39387,-4.090128 -7.63852,-4.090128 -0.24465,0 -4.83749,-2.649848 -10.2063,-5.888544 C 103.8113,76.985188 89.635552,68.799997 89.136656,68.799997 88.951496,68.799997 88.8,82.217229 88.8,98.616068 v 29.816072 l 8.6,4.75892 c 4.73,2.6174 10.22,5.88205 12.2,7.25477 1.98,1.37273 6.69745,4.14742 10.48322,6.16599 3.78578,2.01857 9.54578,5.30697 12.8,7.30756 3.25423,2.00059 6.18678,3.64716 6.51678,3.65903 0.33,0.0118 0.6,-13.43786 0.6,-29.88829 z m 32.4,20.11786 c 3.08,-1.76719 9.02,-5.29612 13.2,-7.84209 4.18,-2.54596 10.66,-6.25391 14.4,-8.23989 l 6.8,-3.61087 0.20974,-29.657566 c 0.11536,-16.311663 0.0522,-29.657567 -0.14038,-29.657567 -0.19257,0 -4.06695,2.109474 -8.60974,4.68772 L 190,78.175437 l -0.4,11.826232 -0.4,11.826231 -7.6,4.25856 -7.6,4.25856 -0.22258,-10.772512 c -0.12241,-5.924879 -0.53359,-10.772511 -0.91372,-10.772511 -0.94423,0 -13.72518,7.141743 -15.4637,8.640807 L 156,98.64798 v 29.0945 29.09451 l 5.4,-2.90798 c 2.97,-1.59939 7.92,-4.35386 11,-6.12103 z M 157.30927,79.399997 c 9.62722,-5.358883 9.51821,-5.151035 4.1327,-7.88008 -2.28692,-1.158869 -6.87692,-3.801282 -10.2,-5.872028 C 147.91889,63.577142 140.16,59.04225 134,55.570349 c -6.16,-3.4719 -11.38,-6.522836 -11.6,-6.779858 -0.22,-0.257022 -2.15452,-1.481296 -4.29894,-2.720608 l -3.89894,-2.253296 -3.30106,1.807923 C 109.08548,46.618869 106.88,48.059853 106,48.826697 c -0.88,0.766845 -3.34826,2.2704 -5.48503,3.341234 l -3.885034,1.94697 10.285034,6.07842 c 5.65677,3.343131 11.72503,6.917585 13.48503,7.943231 1.76,1.025646 5.36,3.232297 8,4.903668 8.1333,5.149151 18.34227,10.853153 19.5227,10.907801 0.61748,0.02856 4.84144,-2.018024 9.38657,-4.548024 z m 35.04264,-20.363615 c 7.22404,-4.034982 7.77255,-4.759736 4.66881,-6.169016 -1.2214,-0.554584 -4.28665,-2.416617 -6.81167,-4.137851 -2.52503,-1.721234 -4.74806,-3.129517 -4.94007,-3.129517 -0.53518,0 -15.67232,-8.664923 -27.10524,-15.515794 -5.62995,-3.373594 -10.48995,-5.992406 -10.8,-5.819582 -0.31006,0.172825 -4.13359,2.400208 -8.49673,4.949741 l -7.933,4.635515 1.83294,1.484226 c 2.10664,1.705851 16.54062,10.416747 23.63305,14.262529 2.64,1.431507 5.52,3.239739 6.4,4.018295 0.88,0.778557 5.02,3.290739 9.2,5.582628 4.18,2.29189 7.92419,4.472219 8.32042,4.845178 0.87545,0.824026 3.68928,-0.346821 12.03149,-5.006352 z"
         id="path5294" />
      <path
         style="fill:#010101;stroke-width:0.8"
         d="m 149.6,259.13235 c -9.87323,-1.67506 -16.64762,-6.77962 -23.29879,-17.55585 L 123.6,237.19999 v -8.8 -8.8 l 2.7332,-5.04078 c 6.74309,-12.43615 17.90996,-18.51449 32.21872,-17.53726 6.89073,0.47061 16.20463,4.29675 19.81225,8.13883 l 1.96417,2.09183 -4.10688,4.10687 -4.10687,4.10687 -2.83543,-2.48953 c -8.45624,-7.42468 -23.54079,-5.18016 -29.93795,4.45466 l -2.94121,4.42978 0.0198,6.06936 c 0.0206,6.30935 0.31389,7.07737 5.18022,13.5636 5.96532,7.95105 20.26884,8.48586 28.21043,1.05478 l 2.21042,-2.06833 3.98958,3.92958 c 4.93493,4.86072 4.97122,4.4704 -0.81165,8.72751 -7.49498,5.51749 -16.28213,7.57522 -25.59878,5.99459 z M 12.8,257.61753 c 0,-0.43034 1.310914,-3.58034 2.913142,-7 1.602228,-3.41964 6.300217,-14.66233 10.439975,-24.98373 4.139757,-10.32141 7.818253,-19.14141 8.174433,-19.6 0.35618,-0.4586 1.292511,-2.55798 2.080733,-4.66529 l 1.433133,-3.83148 5.94043,0.23148 5.94043,0.23148 6.363172,16 c 3.499744,8.8 7.252748,17.8 8.340008,20 1.08726,2.2 3.731487,8.5 5.87606,14 l 3.899224,10 -6.029658,0.23598 c -7.732925,0.30264 -7.597005,0.37744 -9.743776,-5.36296 L 56.60492,247.99999 H 43.649571 30.694223 l -2.264005,5.2 -2.264004,5.2 H 19.483107 C 15.66095,258.39999 12.8,258.06503 12.8,257.61753 Z M 52,236.83286 c 0,-1.7433 -8.331544,-21.61496 -8.825018,-21.04865 -0.526636,0.60436 -3.099334,6.90877 -6.86216,16.81578 l -1.899073,5 h 8.793125 c 5.07761,0 8.793126,-0.32415 8.793126,-0.76713 z m 30.4,-8.81812 v -30.41475 h 6.4 6.4 v 24.77916 24.77917 l 12.09496,0.22083 12.09495,0.22084 -4.2e-4,5.2 -4.3e-4,5.2 -18.49452,0.21474 L 82.4,258.42948 Z m 106.4,-0.0147 v -30.4 h 20.8 20.8 v 6 6 H 216 201.6 v 6 6 h 13.2 13.2 v 5.6 5.6 h -13.2 -13.2 v 7.2 7.2 h 14.8 14.8 v 5.6 5.6 H 210 188.8 Z m 52.8,0 v -30.4 h 20.4 20.4 v 6 6 h -14 -14 v 6 6 h 13.2 13.2 v 5.6 5.6 h -13.2 -13.2 v 7.18195 7.18195 l 14.6,0.21805 14.6,0.21805 0.2637,5.4 0.26369,5.4 H 262.8637 241.6 Z"
         id="path5292" />
    </g>
  </g>
</svg>
